M48
; DRILL file KiCad 10.0.3 date 2026-07-13T19:26:10
; FORMAT={-:-/ absolute / metric / decimal}
; #@! TF.CreationDate,2026-07-13T19:26:10+02:00
; #@! TF.GenerationSoftware,Kicad,Pcbnew,10.0.3
; #@! TF.FileFunction,MixedPlating,1,2
FMAT,2
METRIC
; #@! TA.AperFunction,Plated,PTH,ViaDrill
T1C0.150
; #@! TA.AperFunction,Plated,PTH,ViaDrill
T2C0.250
; #@! TA.AperFunction,Plated,PTH,ViaDrill
T3C0.400
; #@! TA.AperFunction,Plated,PTH,ComponentDrill
T4C0.600
; #@! TA.AperFunction,Plated,PTH,ComponentDrill
T5C0.700
; #@! TA.AperFunction,Plated,PTH,ComponentDrill
T6C0.800
; #@! TA.AperFunction,Plated,PTH,ComponentDrill
T7C1.000
; #@! TA.AperFunction,Plated,PTH,ComponentDrill
T8C1.500
; #@! TA.AperFunction,Plated,PTH,ComponentDrill
T9C3.500
; #@! TA.AperFunction,NonPlated,NPTH,ComponentDrill
T10C1.100
; #@! TA.AperFunction,NonPlated,NPTH,ComponentDrill
T11C1.300
; #@! TA.AperFunction,NonPlated,NPTH,ComponentDrill
T12C1.700
; #@! TA.AperFunction,NonPlated,NPTH,ComponentDrill
T13C3.200
%
G90
G05
T1
X73.0Y-123.4
X97.5Y-105.0
X100.0Y-105.0
X102.5Y-105.0
T2
X53.8Y-99.8
X53.8Y-101.4
X53.8Y-103.0
X57.4Y-105.2
X58.4Y-107.2
X58.5Y-134.3
X58.8Y-128.4
X59.0Y-142.0
X59.0Y-146.0
X59.0Y-149.0
X59.8Y-111.3
X60.0Y-95.0
X60.0Y-96.9
X60.8Y-107.8
X61.4Y-111.8
X62.6Y-125.4
X63.5Y-92.0
X64.0Y-125.4
X64.0Y-129.5
X65.0Y-107.2
X65.0Y-115.0
X65.0Y-137.2
X65.4Y-125.4
X65.4Y-129.5
X66.9Y-136.8
X67.0Y-104.0
X68.0Y-105.0
X68.3Y-132.1
X70.0Y-100.0
X70.0Y-115.0
X70.0Y-120.0
X70.0Y-139.0
X72.5Y-130.0
X72.5Y-132.5
X73.2Y-114.8
X73.2Y-116.2
X73.8Y-118.8
X74.2Y-99.8
X74.6Y-106.0
X74.8Y-117.6
X74.8Y-120.0
X75.0Y-95.0
X75.0Y-135.0
X75.6Y-99.8
X76.6Y-99.8
X77.0Y-92.2
X77.8Y-106.0
X79.2Y-112.0
X79.4Y-114.0
X79.4Y-116.0
X80.0Y-105.0
X83.0Y-110.0
X83.0Y-112.0
X83.0Y-114.0
X83.0Y-115.6
X85.0Y-95.0
X85.0Y-105.0
X85.0Y-131.4
X85.0Y-134.0
X85.1Y-119.8
X86.0Y-111.0
X87.5Y-131.5
X87.5Y-134.0
X87.8Y-116.8
X88.6Y-115.4
X89.6Y-117.0
X89.8Y-114.0
X90.0Y-105.0
X90.0Y-119.9
X90.0Y-130.0
X90.0Y-135.0
X90.2Y-116.2
X92.0Y-111.2
X93.45Y-123.0
X93.45Y-127.0
X93.45Y-129.0
X95.0Y-95.0
X95.0Y-130.0
X95.0Y-135.0
X95.5Y-123.0
X97.22Y-98.6
X99.2Y-97.8
X99.4Y-115.4
X100.0Y-130.0
X100.2Y-92.2
X100.6Y-115.4
X103.4Y-107.4
X103.8Y-111.0
X105.0Y-130.0
X105.0Y-135.0
X105.5Y-116.25
X105.75Y-124.0
X106.75Y-116.25
X106.8Y-110.0
X107.0Y-124.0
X107.4Y-111.0
X108.0Y-116.25
X108.25Y-124.0
X108.5Y-110.75
X110.0Y-105.0
X110.0Y-130.0
X113.5Y-112.5
X115.0Y-105.0
X115.0Y-107.8
X115.0Y-130.0
X118.8Y-111.8
X118.8Y-113.0
X120.0Y-95.0
X120.0Y-120.0
X120.0Y-130.0
X120.0Y-135.0
X121.6Y-100.6
X122.6Y-99.8
X123.6Y-92.2
X123.6Y-99.2
X125.0Y-100.0
X125.0Y-105.0
X125.0Y-110.0
X125.0Y-115.0
X125.0Y-130.0
X125.0Y-135.0
X130.0Y-105.0
X130.0Y-110.0
X130.0Y-130.0
X130.0Y-135.0
X132.9Y-124.1
X135.0Y-105.0
X135.0Y-110.0
X135.0Y-130.0
X135.0Y-135.0
X135.0Y-142.5
X135.0Y-145.0
X135.0Y-147.5
X135.45Y-120.25
X135.8Y-124.2
X137.5Y-142.5
X137.5Y-145.0
X137.9Y-119.1
X138.6Y-121.3
X139.9Y-121.4
X140.0Y-105.0
X140.0Y-109.3
X140.0Y-125.0
X140.0Y-130.0
X140.0Y-142.5
X140.0Y-145.0
X142.4Y-110.5
X142.5Y-140.0
X142.5Y-142.5
X144.7Y-116.0
X145.0Y-100.0
X145.0Y-140.0
X145.0Y-142.5
T3
X60.5Y-141.5
X63.2Y-131.5
X66.25Y-139.25
X66.25Y-140.5
X68.25Y-139.25
X68.25Y-140.5
X70.25Y-140.75
X78.5Y-133.25
T6
X63.0Y-100.0
X63.0Y-101.5
X67.0Y-100.0
X67.0Y-101.5
X69.5Y-95.39
X69.5Y-103.01
X86.267Y-100.0
X86.267Y-101.5
X90.267Y-100.0
X90.267Y-101.5
X92.767Y-95.39
X92.767Y-103.01
X109.533Y-100.0
X109.533Y-101.5
X113.533Y-100.0
X113.533Y-101.5
X116.033Y-95.39
X116.033Y-103.01
X132.8Y-100.0
X132.8Y-101.5
X136.8Y-100.0
X136.8Y-101.5
X139.3Y-95.39
X139.3Y-103.01
T7
X137.785Y-148.275
X140.325Y-148.275
X142.865Y-148.275
T8
X95.0Y-143.5
X105.0Y-143.5
X120.0Y-143.5
X130.0Y-143.5
T9
X66.2Y-119.775
T10
X146.75Y-112.259
X146.75Y-121.259
T11
X58.65Y-92.85
X58.65Y-105.55
X71.35Y-92.85
X71.35Y-105.55
X81.917Y-92.85
X81.917Y-105.55
X94.617Y-92.85
X94.617Y-105.55
X105.183Y-92.85
X105.183Y-105.55
X117.883Y-92.85
X117.883Y-105.55
X128.45Y-92.85
X128.45Y-105.55
X141.15Y-92.85
X141.15Y-105.55
T12
X78.9Y-139.5
X78.9Y-146.5
T13
X54.0Y-94.0
X54.0Y-146.0
X146.0Y-94.0
X146.0Y-146.0
T4
X61.63Y-142.85G85X61.63Y-143.65
G05
X61.63Y-146.65G85X61.63Y-147.85
G05
X72.87Y-142.85G85X72.87Y-143.65
G05
X72.87Y-146.65G85X72.87Y-147.85
G05
X149.027Y-111.936G85X148.673Y-111.582
G05
X148.673Y-121.936G85X149.027Y-121.582
G05
T5
X76.5Y-146.1G85X76.5Y-145.3
G05
X76.5Y-148.75G85X76.5Y-148.25
G05
X77.5Y-135.3G85X78.8Y-135.3
G05
X81.3Y-138.85G85X81.3Y-137.55
G05
X81.3Y-148.0G85X81.3Y-147.2
G05
M30
